<svg xmlns="http://www.w3.org/2000/svg" xmlns:xlink="http://www.w3.org/1999/xlink"><defs><clipPath id="clip0"><path fill="#fff" transform="translate(0 .187)" d="M0 0h170v36.259H0z"/></clipPath><clipPath id="clip0"><path fill="#fff" transform="translate(0 .484)" d="M0 0h145.74v45.665H0z"/></clipPath><clipPath id="clip0"><path fill="#fff" transform="translate(0 .031)" d="M0 0h180v38.571H0z"/></clipPath><clipPath id="clip0"><path fill="#fff" transform="translate(0 .805)" d="M0 0h120v35.024H0z"/></clipPath><clipPath id="clip0"><path fill="#fff" d="M0 0h32v32H0z"/></clipPath></defs><symbol id="icon-circus"><path d="M30.282 29.791V20.85a4.692 4.692 0 001.697-3.612V15.12L16.938 6.75V5.541h5.414V.334h-7.29v6.415L0 15.119v2.118c0 1.46.67 2.768 1.719 3.63v8.924H0v1.875h32v-1.875h-1.718zM16.938 2.21h3.54v1.458h-3.54V2.209zm12.32 13.541h-5.095L19.5 10.32l9.757 5.43zm-12.331-5.549l4.765 5.55h-4.765V10.2zm5.624 7.424a2.83 2.83 0 01-2.799 2.437 2.83 2.83 0 01-2.799-2.437h5.598zM10.305 15.75l4.747-5.543v5.543h-4.747zm4.72 1.875a2.83 2.83 0 01-2.799 2.437 2.83 2.83 0 01-2.799-2.437h5.598zm-2.547-7.295l-4.642 5.42H2.723l9.755-5.42zM1.902 17.625h5.597A2.83 2.83 0 014.7 20.062a2.83 2.83 0 01-2.798-2.437zm5.697 12.166H3.594v-7.986a4.697 4.697 0 004.87-1.754 4.696 4.696 0 006.39 1.081 11.083 11.083 0 01-1.183 3.24 11.09 11.09 0 01-3.826 4.021L7.6 29.791zm3.537 0A12.903 12.903 0 0016 23.832a12.893 12.893 0 004.865 5.96h-9.729zm17.271 0h-4.005l-2.247-1.398a11.091 11.091 0 01-3.825-4.02 11.079 11.079 0 01-1.18-3.224 4.697 4.697 0 006.365-1.098 4.696 4.696 0 004.892 1.748v7.992zm-1.129-9.729a2.83 2.83 0 01-2.799-2.437h5.598a2.83 2.83 0 01-2.799 2.437z" fill="#10375C"/></symbol><symbol id="icon-down"><path d="M16.007 20.533a1.07 1.07 0 01-.774-.32L8.567 13.28c-.4-.427-.4-1.093.026-1.52.427-.4 1.094-.4 1.52.027l5.894 6.133 5.893-6.133c.4-.427 1.093-.427 1.52-.027.427.4.427 1.093.027 1.52l-6.667 6.933c-.213.213-.48.32-.773.32z"/></symbol><symbol id="icon-facebook"><path d="M17.563 1.005L14.786 1c-3.12 0-5.137 2.125-5.137 5.414v2.497H6.857c-.242 0-.437.2-.437.448v3.617c0 .248.196.449.437.449h2.792v9.126c0 .248.196.449.437.449h3.643a.443.443 0 00.437-.449v-9.126h3.265c.241 0 .436-.2.436-.449l.002-3.617a.455.455 0 00-.128-.317.431.431 0 00-.309-.131h-3.266V6.794c0-1.017.236-1.533 1.526-1.533h1.87a.444.444 0 00.437-.45V1.454a.443.443 0 00-.436-.448z"/></symbol><symbol id="icon-flag"><path d="M8 28.871V16.866m0 12.005h2m-2 0H6m2-12.005V4.861h18l-6 6.003 6 6.002H8z" stroke="#262F56" stroke-width="2.5" stroke-linecap="round" stroke-linejoin="round"/></symbol><symbol id="icon-google"><path d="M116.262 24.726l3.329 2.236c-1.08 1.603-3.664 4.354-8.132 4.354-5.548 0-9.68-4.325-9.68-9.826 0-5.855 4.175-9.826 9.213-9.826 5.066 0 7.548 4.06 8.351 6.251l.438 1.118-13.053 5.443c.993 1.971 2.541 2.971 4.731 2.971s3.708-1.088 4.803-2.721zm-10.235-3.545l8.717-3.648c-.482-1.221-1.913-2.089-3.621-2.089-2.175 0-5.198 1.942-5.096 5.737z" fill="#FF302F"/><path d="M72.447 21.49c0 5.663-4.38 9.826-9.754 9.826-5.373 0-9.753-4.163-9.753-9.826 0-5.693 4.38-9.826 9.753-9.826s9.754 4.119 9.754 9.826zm-4.279 0c0-3.53-2.54-5.958-5.49-5.958-2.948 0-5.489 2.427-5.489 5.958 0 3.5 2.54 5.957 5.49 5.957 2.964 0 5.49-2.471 5.49-5.957z" fill="#FFBA40"/><path d="M88.857 12.428h4.06v17.476c0 7.251-4.25 10.237-9.272 10.237-4.73 0-7.578-3.206-8.643-5.81l3.723-1.56c.671 1.604 2.292 3.502 4.92 3.502 3.227 0 5.212-2.015 5.212-5.781V29.08h-.146c-.963 1.177-2.803 2.236-5.139 2.236-4.877 0-9.344-4.28-9.344-9.797 0-5.545 4.468-9.87 9.344-9.87 2.322 0 4.176 1.044 5.14 2.192h.145v-1.412zm.292 9.091c0-3.471-2.292-6.001-5.212-6.001-2.95 0-5.431 2.53-5.431 6.001 0 3.427 2.482 5.913 5.431 5.913 2.92.015 5.212-2.486 5.212-5.913z" fill="#3686F7"/><path d="M51.145 21.445c0 5.664-4.38 9.826-9.754 9.826-5.373 0-9.753-4.177-9.753-9.826 0-5.692 4.38-9.84 9.753-9.84s9.754 4.148 9.754 9.84zm-4.264 0c0-3.53-2.54-5.957-5.49-5.957-2.949 0-5.49 2.427-5.49 5.957 0 3.501 2.541 5.958 5.49 5.958 2.95 0 5.49-2.457 5.49-5.957z" fill="#FF302F"/><path d="M95.486 1.646h4.205v28.772h-4.205V1.646z" fill="#20B15A"/><path d="M15.607 27.006c-6.117 0-10.906-4.972-10.906-11.135 0-6.164 4.788-11.136 10.906-11.136 3.3 0 5.709 1.31 7.49 2.986l2.935-2.956C23.55 2.367 20.235.543 15.607.543 7.227.543.174 7.427.174 15.871c0 8.443 7.052 15.327 15.433 15.327 4.526 0 7.943-1.5 10.615-4.295 2.744-2.766 3.591-6.649 3.591-9.797 0-.985-.116-2-.248-2.75H15.607v4.089h9.943c-.292 2.56-1.095 4.31-2.278 5.501-1.43 1.456-3.694 3.06-7.665 3.06z" fill="#3686F7"/></symbol><symbol id="icon-instagram"><path fill-rule="evenodd" clip-rule="evenodd" d="M2 12c0-4.191 0-6.287 1.05-7.733A5.5 5.5 0 014.267 3.05C5.713 2 7.81 2 12 2s6.287 0 7.733 1.05a5.5 5.5 0 011.217 1.217C22 5.713 22 7.81 22 12s0 6.287-1.05 7.733a5.5 5.5 0 01-1.217 1.217C18.287 22 16.19 22 12 22s-6.287 0-7.733-1.05a5.5 5.5 0 01-1.217-1.217C2 18.287 2 16.19 2 12zm10-5.294a5.294 5.294 0 100 10.589 5.294 5.294 0 000-10.59zm0 8.603A3.313 3.313 0 018.691 12 3.313 3.313 0 0112 8.691 3.313 3.313 0 0115.309 12 3.313 3.313 0 0112 15.309zm6.397-9a.705.705 0 11-1.411 0 .705.705 0 011.41 0z"/></symbol><symbol id="icon-meeting-room"><path d="M28.25 7.5A3.754 3.754 0 0032 3.75 3.754 3.754 0 0028.25 0a3.754 3.754 0 00-3.75 3.75 3.754 3.754 0 003.75 3.75zm0-5a1.25 1.25 0 110 2.5 1.25 1.25 0 010-2.5zm-24.5 5A3.754 3.754 0 007.5 3.75 3.754 3.754 0 003.75 0 3.754 3.754 0 000 3.75 3.754 3.754 0 003.75 7.5zm0-5a1.25 1.25 0 110 2.5 1.25 1.25 0 010-2.5zm24.52 6.188h-.019c-2.587 0-3.568 1.883-4.186 3.727l-.966 2.898h-1.474v-2.876a3.754 3.754 0 00-3.75-3.75h-3.75a3.754 3.754 0 00-3.75 3.75v2.876H8.901c-.3-.9-.755-2.27-.966-2.898-.618-1.844-1.599-3.727-4.186-3.727H3.73A3.754 3.754 0 000 12.438v6.812a3.756 3.756 0 002.5 3.535v.027c.032 0 .064.003.095.005.14.046.282.083.428.112.428.198.727.631.727 1.134V32h2.5v-7.938A3.73 3.73 0 006.096 23h1.466c.69 0 1.25.56 1.25 1.25V32h2.5v-7.75a3.754 3.754 0 00-3.75-3.75H3.75a.99.99 0 01-.095-.005 3.734 3.734 0 00-.428-.111A1.25 1.25 0 012.5 19.25v-6.813a1.25 1.25 0 011.239-1.25c.565-.002 1.147-.003 1.826 2.023.324.968 1.24 3.72 1.249 3.747l.284.855h17.804l.284-.855c.01-.028.925-2.779 1.25-3.747.678-2.026 1.26-2.024 1.825-2.023a1.25 1.25 0 011.239 1.25v6.813c0 .502-.299.936-.727 1.134a3.732 3.732 0 00-.427.111 1.211 1.211 0 01-.096.005H24.5a3.754 3.754 0 00-3.75 3.75V32h2.5v-7.75c0-.69.56-1.25 1.25-1.25h1.404c-.1.337-.154.694-.154 1.063V32h2.5v-7.938c0-.502.299-.935.727-1.133.146-.03.288-.066.427-.112.032-.002.064-.005.096-.005v-.027A3.756 3.756 0 0032 19.25v-6.813a3.754 3.754 0 00-3.73-3.75zm-15.395 3.75c0-.69.56-1.25 1.25-1.25h3.75c.69 0 1.25.56 1.25 1.25v2.874h-6.25v-2.874zM16 7.5a3.754 3.754 0 003.75-3.75A3.754 3.754 0 0016 0a3.754 3.754 0 00-3.75 3.75A3.754 3.754 0 0016 7.5zm0-5A1.25 1.25 0 1116 5a1.25 1.25 0 010-2.5z" fill="#10375C"/></symbol><symbol id="icon-microsoft"><g clip-path="url(#clip0)"><path d="M19.055 19.216h17.253v17.23H19.055v-17.23z" fill="#FFB900"/><path d="M0 19.216h17.253v17.23H0v-17.23z" fill="#00A4EF"/><path d="M60.007 21.071l-1.014 2.867h-.084a20.345 20.345 0 00-.985-2.81L52.492 7.494h-5.32v21.727h3.518V15.815c0-.843 0-1.799-.028-2.98-.028-.59-.084-1.04-.112-1.377h.084c.169.843.366 1.462.507 1.855l6.53 15.853h2.476l6.474-15.993c.14-.366.281-1.097.422-1.715h.084c-.084 1.602-.14 3.036-.168 3.907v13.773h3.743v-21.7h-5.123l-5.572 13.633zm14.241-7.505h3.66v15.572h-3.66V13.566zm1.858-6.577c-.62 0-1.126.225-1.548.618-.422.394-.648.9-.648 1.518 0 .59.226 1.096.648 1.49.422.393.929.59 1.548.59.62 0 1.154-.225 1.548-.59.422-.394.647-.9.647-1.49s-.225-1.096-.647-1.518c-.366-.393-.9-.618-1.548-.618zm14.776 6.437a10.252 10.252 0 00-2.054-.225c-1.66 0-3.18.365-4.447 1.096-1.267.73-2.28 1.743-2.927 3.008-.676 1.293-1.014 2.782-1.014 4.497 0 1.49.338 2.81.985 4.02.648 1.18 1.548 2.135 2.759 2.782 1.154.646 2.505.984 4.025.984 1.745 0 3.236-.366 4.418-1.04l.029-.028v-3.373l-.141.112a6.29 6.29 0 01-1.773.927c-.648.225-1.239.338-1.745.338-1.464 0-2.618-.422-3.434-1.35-.844-.899-1.267-2.136-1.267-3.681 0-1.602.422-2.867 1.295-3.795.873-.928 2.027-1.405 3.434-1.405 1.182 0 2.392.393 3.49 1.18l.14.113v-3.57l-.028-.028c-.478-.197-1.013-.422-1.745-.562zm12.075-.113a3.86 3.86 0 00-2.477.872c-.62.506-1.041 1.236-1.407 2.108h-.028v-2.727h-3.66v15.572h3.66v-7.955c0-1.349.281-2.473.9-3.288.619-.843 1.408-1.265 2.365-1.265.337 0 .675.084 1.097.14.394.113.676.225.873.366l.14.112v-3.654l-.084-.028c-.253-.168-.76-.253-1.379-.253zm9.963-.084c-2.561 0-4.615.759-6.051 2.249-1.463 1.49-2.167 3.541-2.167 6.127 0 2.417.732 4.385 2.139 5.818 1.407 1.406 3.321 2.137 5.714 2.137 2.505 0 4.503-.76 5.938-2.277 1.464-1.518 2.168-3.542 2.168-6.043 0-2.474-.676-4.441-2.055-5.875-1.323-1.433-3.265-2.136-5.686-2.136zm2.928 11.974c-.676.871-1.745 1.293-3.068 1.293s-2.393-.422-3.153-1.35c-.76-.87-1.125-2.136-1.125-3.738 0-1.658.394-2.923 1.125-3.822.76-.9 1.802-1.35 3.125-1.35 1.294 0 2.308.422 3.039 1.293.732.872 1.126 2.137 1.126 3.795-.056 1.686-.366 3.007-1.069 3.879zm12.975-5.172c-1.154-.478-1.886-.843-2.224-1.152-.281-.282-.422-.675-.422-1.18 0-.423.169-.844.591-1.125.422-.281.901-.422 1.604-.422.62 0 1.267.113 1.886.281.619.169 1.182.422 1.633.76l.14.112v-3.43l-.084-.028a10.153 10.153 0 00-1.661-.477 11.288 11.288 0 00-1.801-.17c-1.745 0-3.18.423-4.306 1.35-1.126.871-1.661 2.052-1.661 3.43 0 .73.113 1.376.366 1.91s.619 1.04 1.126 1.462c.506.394 1.238.843 2.252 1.265.844.365 1.491.646 1.885.871.394.225.648.478.845.675.14.225.225.506.225.871 0 1.04-.788 1.546-2.393 1.546-.619 0-1.266-.112-2.026-.365a7.836 7.836 0 01-2.055-1.04l-.14-.113v3.57l.084.028c.535.253 1.182.422 1.97.618.788.14 1.492.253 2.111.253 1.886 0 3.434-.421 4.532-1.349 1.125-.9 1.716-2.052 1.716-3.541 0-1.04-.281-1.968-.9-2.67a11.418 11.418 0 00-3.293-1.94zm13.847-6.802c-2.561 0-4.615.759-6.051 2.249-1.435 1.49-2.167 3.541-2.167 6.127 0 2.417.732 4.385 2.139 5.818 1.407 1.406 3.321 2.137 5.714 2.137 2.505 0 4.503-.76 5.938-2.277 1.464-1.518 2.168-3.542 2.168-6.043 0-2.474-.676-4.441-2.055-5.875-1.323-1.433-3.265-2.136-5.686-2.136zm2.899 11.974c-.675.871-1.745 1.293-3.067 1.293-1.351 0-2.393-.422-3.153-1.35-.76-.87-1.126-2.136-1.126-3.738 0-1.658.394-2.923 1.126-3.822.76-.9 1.802-1.35 3.124-1.35 1.267 0 2.308.422 3.04 1.293.732.872 1.126 2.137 1.126 3.795 0 1.686-.366 3.007-1.07 3.879zm24.403-8.63v-3.007h-3.687v-4.61l-.113.029-3.49 1.04-.084.028v3.513h-5.517V11.6c0-.9.225-1.602.619-2.052.394-.45.985-.675 1.717-.675.507 0 1.042.113 1.633.366l.14.084V6.146l-.084-.028c-.507-.169-1.182-.281-2.055-.281a6.602 6.602 0 00-2.927.674 4.878 4.878 0 00-1.998 1.996c-.479.843-.732 1.799-.732 2.895v2.164h-2.561v2.98h2.561v12.592h3.687V16.574h5.517v8.01c0 3.289 1.548 4.947 4.644 4.947.506 0 1.041-.084 1.548-.168.534-.113.928-.253 1.154-.366l.028-.028v-3.007l-.141.112c-.225.14-.422.253-.76.337a2.58 2.58 0 01-.732.113c-.731 0-1.238-.169-1.604-.59-.338-.394-.507-1.04-.507-1.996v-7.364h3.744z" fill="#737373"/><path d="M19.055.187h17.253v17.23H19.055V.187z" fill="#7FBA00"/><path d="M0 .187h17.253v17.23H0V.187z" fill="#F25022"/></g></symbol><symbol id="icon-next"><path d="M91.552 15.13l-9.205 11.19c-.295.359-.665.538-1.034.538-.37 0-.74-.18-1.035-.537-.592-.716-.592-1.835 0-2.552l6.69-8.146H65.381c-.813 0-1.479-.806-1.479-1.79 0-.985.666-1.79 1.479-1.79h21.587l-6.69-8.147c-.592-.717-.592-1.836 0-2.552.59-.716 1.515-.716 2.106 0l9.204 11.19c.555.761.555 1.925-.036 2.597z"/><rect x=".314" y="11.64" width="88.714" height="4.476" rx="2.238"/></symbol><symbol id="icon-previous"><path d="M.763 15.13l9.204 11.19c.296.359.665.538 1.035.538.37 0 .74-.18 1.035-.537.591-.716.591-1.835 0-2.552l-6.69-8.146h21.586c.814 0 1.48-.806 1.48-1.79 0-.985-.666-1.79-1.48-1.79H5.346l6.691-8.147c.591-.717.591-1.836 0-2.552-.592-.716-1.516-.716-2.107 0L.726 12.534c-.555.761-.555 1.925.037 2.597z"/><rect width="88.714" height="4.002" rx="2.001" transform="matrix(-1 0 0 1 53 11.852)"/></symbol><symbol id="icon-right"><path d="M9.533 7.993c0 .294-.106.56-.32.774L2.28 15.433c-.427.4-1.093.4-1.52-.026-.4-.427-.4-1.094.027-1.52L6.92 7.993.787 2.1C.36 1.7.36 1.007.76.58 1.16.153 1.853.153 2.28.553L9.213 7.22c.214.213.32.48.32.773z"/></symbol><symbol id="icon-shopify"><g clip-path="url(#clip0)"><path d="M31.315 9.95c-.024-.214-.214-.309-.357-.309s-3.263-.238-3.263-.238-2.167-2.164-2.429-2.378c-.238-.238-.69-.167-.88-.12-.025 0-.477.144-1.215.381-.739-2.116-2-4.043-4.263-4.043h-.214c-.62-.808-1.43-1.189-2.096-1.189-5.239 0-7.763 6.54-8.55 9.87-2.047.643-3.5 1.07-3.666 1.142-1.143.357-1.167.38-1.31 1.45-.12.81-3.096 23.809-3.096 23.809l23.17 4.328 12.575-2.711c.023-.048-4.382-29.778-4.406-29.992zm-9.43-2.33c-.572.166-1.262.38-1.953.618V7.81c0-1.285-.167-2.331-.476-3.164 1.19.143 1.929 1.451 2.429 2.973zm-3.882-2.712c.31.809.524 1.95.524 3.52v.238c-1.286.404-2.643.809-4.048 1.26.786-2.996 2.286-4.47 3.524-5.018zM16.48 3.433c.238 0 .476.096.667.238-1.691.785-3.477 2.76-4.215 6.755-1.12.357-2.191.666-3.215.999.857-3.045 3-7.992 6.763-7.992z" fill="#95BF47"/><path d="M18.908 16.538l-1.524 4.59s-1.381-.737-3.024-.737c-2.453 0-2.572 1.546-2.572 1.927 0 2.093 5.477 2.901 5.477 7.825 0 3.877-2.453 6.374-5.763 6.374-4 0-6.001-2.474-6.001-2.474l1.072-3.52s2.095 1.808 3.857 1.808c1.167 0 1.644-.904 1.644-1.57 0-2.735-4.477-2.854-4.477-7.373 0-3.782 2.714-7.444 8.215-7.444 2.048-.024 3.096.594 3.096.594z" fill="#fff"/><path d="M50.39 25.172c-1.262-.666-1.905-1.26-1.905-2.046 0-.998.905-1.64 2.31-1.64 1.643 0 3.096.665 3.096.665l1.142-3.496s-1.047-.809-4.143-.809c-4.31 0-7.31 2.474-7.31 5.946 0 1.974 1.404 3.473 3.262 4.543 1.524.832 2.048 1.45 2.048 2.355 0 .927-.762 1.688-2.168 1.688-2.071 0-4.048-1.07-4.048-1.07l-1.214 3.496s1.81 1.213 4.858 1.213c4.43 0 7.644-2.188 7.644-6.112-.048-2.14-1.643-3.615-3.572-4.733zm17.67-7.373c-2.191 0-3.906 1.046-5.216 2.616l-.047-.024 1.905-9.894h-4.93l-4.81 25.211h4.93l1.643-8.61c.643-3.258 2.333-5.28 3.905-5.28 1.12 0 1.548.761 1.548 1.832 0 .666-.048 1.522-.214 2.188l-1.858 9.87h4.93l1.929-10.18c.214-1.07.357-2.354.357-3.234-.024-2.83-1.477-4.495-4.072-4.495zm15.217 0c-5.954 0-9.883 5.351-9.883 11.321 0 3.805 2.357 6.897 6.787 6.897 5.834 0 9.764-5.208 9.764-11.32.023-3.545-2.025-6.898-6.668-6.898zm-2.43 14.46c-1.69 0-2.38-1.427-2.38-3.234 0-2.83 1.452-7.42 4.143-7.42 1.738 0 2.334 1.521 2.334 2.972 0 3.02-1.5 7.683-4.096 7.683zM102.59 17.8c-3.334 0-5.216 2.949-5.216 2.949h-.047l.285-2.64h-4.381c-.215 1.784-.62 4.519-1 6.54l-3.406 18.053h4.93l1.38-7.302h.12s1.024.642 2.881.642c5.811 0 9.597-5.946 9.597-11.94-.024-3.33-1.524-6.302-5.143-6.302zm-4.716 14.508c-1.285 0-2.048-.737-2.048-.737l.81-4.59c.572-3.093 2.191-5.114 3.906-5.114 1.524 0 1.976 1.403 1.976 2.711.024 3.187-1.881 7.73-4.644 7.73zm16.884-21.572a2.829 2.829 0 00-2.833 2.854c0 1.45.928 2.474 2.333 2.474h.048c1.548 0 2.858-1.047 2.881-2.854.024-1.451-.952-2.474-2.429-2.474zm-6.906 24.95h4.93l3.334-17.506h-4.954l-3.31 17.505zm20.837-17.53h-3.429l.167-.808c.286-1.689 1.286-3.163 2.953-3.163.881 0 1.572.261 1.572.261l.952-3.877s-.833-.428-2.691-.428c-1.738 0-3.501.5-4.834 1.641-1.691 1.428-2.477 3.497-2.858 5.59l-.143.808h-2.31l-.738 3.734h2.31l-2.619 13.795h4.929l2.62-13.795h3.405l.714-3.757zm11.883.024s-3.095 7.778-4.453 12.035h-.047c-.096-1.38-1.215-12.035-1.215-12.035h-5.191l2.976 16.03c.048.357.024.572-.119.81-.571 1.117-1.547 2.188-2.691 2.972-.928.666-1.976 1.118-2.81 1.404l1.382 4.186c1-.214 3.095-1.047 4.834-2.688 2.238-2.093 4.334-5.351 6.477-9.775l6.025-12.962h-5.168v.023z" fill="#000"/><path d="M30.958 9.593c-.143 0-3.263-.237-3.263-.237s-2.167-2.165-2.429-2.379a.461.461 0 00-.31-.143l-1.738 35.82 12.574-2.712s-4.406-29.778-4.43-29.992a.644.644 0 00-.404-.357z" fill="#5E8E3E"/></g></symbol><symbol id="icon-stripe"><path d="M59.086 10.753h-7.498v26.205h7.498V10.753z" fill="#32325D"/><path fill-rule="evenodd" clip-rule="evenodd" d="M43.553 12.97l-.478-2.216h-6.452v26.204h7.468v-17.76c1.762-2.305 4.75-1.886 5.675-1.556v-6.888c-.956-.36-4.45-1.019-6.213 2.216zM108.4 23.96c0-7.666-3.703-13.716-10.782-13.716-7.11 0-11.41 6.05-11.41 13.657 0 9.014 5.077 13.566 12.365 13.566 3.555 0 6.243-.809 8.274-1.947v-5.99c-2.031 1.019-4.361 1.648-7.318 1.648-2.897 0-5.466-1.018-5.795-4.552h14.607c0-.39.059-1.947.059-2.666zm-14.755-2.845c0-3.384 2.06-4.791 3.943-4.791 1.822 0 3.763 1.407 3.763 4.791h-7.706zM74.678 10.244c-2.928 0-4.81 1.378-5.855 2.336l-.388-1.857h-6.572v34.92l7.468-1.588.03-8.475c1.075.779 2.658 1.887 5.287 1.887 5.346 0 10.215-4.313 10.215-13.806-.03-8.685-4.958-13.417-10.185-13.417zm-1.793 20.634c-1.762 0-2.807-.629-3.524-1.407l-.03-11.11c.777-.87 1.852-1.468 3.554-1.468 2.719 0 4.6 3.054 4.6 6.977 0 4.014-1.852 7.008-4.6 7.008zM8.427 18.36c0-1.168.955-1.617 2.539-1.617 2.27 0 5.137.689 7.407 1.917v-7.038c-2.479-.988-4.928-1.378-7.407-1.378C4.902 10.244.87 13.42.87 18.72c0 8.265 11.35 6.947 11.35 10.511 0 1.378-1.195 1.827-2.867 1.827-2.48 0-5.646-1.018-8.155-2.396v7.128a20.66 20.66 0 008.155 1.707c6.213 0 10.484-3.085 10.484-8.446-.03-8.924-11.41-7.337-11.41-10.69zM28.619 4.255L21.33 5.812 21.3 29.8c0 4.432 3.316 7.697 7.737 7.697 2.45 0 4.241-.45 5.227-.989V30.43c-.956.39-5.675 1.767-5.675-2.665V17.132h5.675v-6.379h-5.675l.03-6.498zm22.969 4.223l7.498-1.618V.781l-7.498 1.587v6.11z" fill="#32325D"/></symbol><symbol id="icon-tokopedia"><g clip-path="url(#clip0)"><path fill-rule="evenodd" clip-rule="evenodd" d="M96.233 27.074c-1.957 1.958-4.297 2.942-7.009 2.942-2.193 0-4.057-.44-5.96-1.53v-4.49c1.531 1.024 3.454 1.999 5.35 1.999 3.956 0 6.31-2.686 6.31-6.492 0-3.81-2.435-6.575-6.393-6.575-1.767 0-3.2.627-4.32 1.883-1.199 1.362-1.82 3.307-1.82 5.88v17.725h-.297c-2.18 0-3.947-1.743-3.947-3.893V20.025c0-6.152 3.812-11.119 10.365-11.119 3.236 0 5.863 1.091 7.856 3.284 1.873 2.049 2.802 4.644 2.802 7.768 0 2.78-.98 5.157-2.937 7.116zm45.963-.15c-1.949 2.063-4.456 3.093-7.496 3.093-3.209 0-5.824-1.092-7.815-3.284-1.872-2.075-2.801-4.672-2.801-7.768 0-5.48 4.287-10.059 9.929-10.059 2.177 0 4.066.453 5.975 1.486v4.535c-1.53-1.024-3.452-1.999-5.348-1.999-3.956 0-6.312 2.685-6.312 6.493 0 3.756 2.493 6.574 6.393 6.574 1.766 0 3.22-.653 4.384-1.968 1.156-1.307 1.757-3.227 1.757-5.807V4.111c0-2.15 1.767-3.893 3.947-3.893h.298v18.664c0 3.287-.964 5.978-2.911 8.042zm11.988-20.01c-.446.492-1.084.718-1.863.718-1.458 0-2.5-1.06-2.5-2.486 0-1.46 1.023-2.446 2.5-2.446 1.421 0 2.5 1.04 2.5 2.446 0 .695-.207 1.292-.637 1.768zm21.57 11.306c0-1.65-.633-2.957-1.905-3.948-1.146-.89-2.577-1.344-4.319-1.344-3.842 0-6.309 2.963-6.309 6.616 0 3.517 2.615 6.45 6.269 6.45 2.542 0 3.901-1.463 5.35-3.288v5.26c-.738.546-1.588 1.141-2.455 1.49-.915.377-2.007.56-3.269.56-6.111 0-10.14-4.992-10.14-10.76 0-2.963.933-5.413 2.811-7.322 1.992-2.024 4.606-3.028 7.806-3.028 6.067 0 10.407 3.436 10.407 9.645v11.052h-.297c-2.182 0-3.949-1.743-3.949-3.894V18.22zm-58.113-1.186c-.537-1.637-1.209-2.442-2.756-3.294-3.679-2.027-7.3-.301-8.984 3.278l11.74.016zm-3.24 12.92c-2.711.57-5.372.131-7.968-1.3-2.532-1.395-4.228-3.47-5.078-6.21-1.718-5.545 1.802-11.723 7.464-13.219 2.807-.741 5.497-.405 8.054 1.004 4.246 2.341 5.794 5.963 5.524 10.63l-17.104-.034c.253 1.903 1.449 3.393 3.13 4.319 1.705.94 3.272 1.164 4.726.72 1.615-.5 2.924-1.8 3.99-3.01l3.485 2.504c-1.421 2.51-3.357 3.995-6.223 4.597zM150.198 9.32h4.245v20.283h-.299c-2.178 0-3.946-1.743-3.946-3.894V9.32zM6.213 29.603C2.06 29.603 0 26.817 0 22.926V8.166c0-2.15 1.768-3.894 3.948-3.894h.298V9.32h7.172v4.022H4.246v10.05c0 1.709.773 2.19 2.428 2.19h4.744v4.02H6.213zm24.654-2.564c-2.097 1.984-4.618 2.977-7.547 2.977-2.9 0-5.407-.994-7.504-2.977-2.105-1.99-3.154-4.524-3.154-7.577 0-5.957 4.611-10.556 10.658-10.556 2.903 0 5.416 1.003 7.526 3 2.118 2.003 3.175 4.529 3.175 7.556 0 3.053-1.05 5.586-3.154 7.577zm19.848-12.838c-.623 1.03-1.106 1.769-1.446 2.215-.374.485-.744.873-1.11 1.141 2.95.94 4.049 2.956 4.049 5.96v6.086h-.298c-2.18 0-3.948-1.743-3.948-3.894V23.93c0-1.945-.884-3.264-2.973-3.264h-3.856v8.937h-.298c-2.18 0-3.946-1.743-3.946-3.894V4.11c0-2.15 1.766-3.893 3.946-3.893h.298v16.384h1.255c1.379 0 2.285-.465 2.805-1.345l3.566-5.936 4.837-.005-2.881 4.885zm21.913 12.838c-2.097 1.984-4.618 2.977-7.546 2.977-2.901 0-5.407-.994-7.505-2.977-2.104-1.99-3.154-4.524-3.154-7.577 0-5.957 4.611-10.556 10.659-10.556 2.902 0 5.415 1.003 7.526 3 2.117 2.003 3.174 4.529 3.174 7.556 0 3.053-1.05 5.586-3.153 7.577zm-3.064-12.298c-1.17-1.207-2.655-1.813-4.482-1.813-3.907 0-6.246 2.81-6.246 6.534 0 3.672 2.395 6.533 6.246 6.533 3.852 0 6.245-2.861 6.245-6.533 0-1.95-.594-3.515-1.763-4.72zm-41.761 0c-1.17-1.207-2.656-1.813-4.483-1.813-3.906 0-6.245 2.81-6.245 6.534 0 3.672 2.395 6.533 6.245 6.533 3.852 0 6.246-2.861 6.246-6.533 0-1.95-.594-3.515-1.763-4.72z" fill="#42B549"/></g></symbol><symbol id="icon-upwork"><g clip-path="url(#clip0)"><path d="M32.344 8.86c-4.453 0-7.852 2.919-9.258 7.589-2.11-3.152-3.633-6.655-4.688-10.274h-4.804V18.55a4.443 4.443 0 01-4.453 4.436 4.443 4.443 0 01-4.454-4.436V6.292H0v12.375c0 5.02 4.102 9.223 9.258 9.223 5.156 0 9.258-4.086 9.258-9.223v-2.102c.937 1.985 2.109 3.853 3.398 5.604l-2.93 13.66h4.922l2.11-9.924a11.36 11.36 0 006.445 1.985c5.273 0 9.492-4.203 9.492-9.457-.117-5.253-4.336-9.573-9.61-9.573zm0 14.243c-1.992-.117-3.867-.817-5.39-2.101l.35-1.868v-.117c.352-1.985 1.524-5.37 4.923-5.37 2.578-.117 4.687 1.985 4.804 4.553.117 2.568-1.992 4.67-4.57 4.787l-.117.116z" fill="#6FDA44"/><path d="M76.64 8.86c-5.273 0-9.492 4.203-9.492 9.457 0 5.253 4.22 9.456 9.493 9.456 5.273 0 9.492-4.203 9.492-9.456 0-5.254-4.219-9.457-9.492-9.457zm0 15.06c-3.046 0-5.624-2.451-5.624-5.603 0-3.152 2.46-5.604 5.625-5.604 3.046 0 5.625 2.452 5.625 5.487 0 3.152-2.461 5.72-5.625 5.72zm21.094-10.507c-2.695 0-4.921 2.219-4.921 4.904v8.99H88.71V9.443h4.102v2.802a6.357 6.357 0 015.273-2.802h1.289v3.97h-1.64zm-41.25-3.97l3.047 12.376L62.93 9.444h3.984l-5.156 17.862h-4.102l-3.164-12.492-3.164 12.492h-4.101L42.07 9.444h3.985l3.398 12.375 3.164-12.375h3.867zm54.844 8.173c3.047-1.634 4.805-4.786 4.805-8.289h-3.985c0 3.036-2.46 5.37-5.39 5.37h-.586V.806h-4.102v26.501h4.102V18.9h.469c.468 0 .937.234 1.171.584l5.743 7.822h4.922l-7.149-9.69z" fill="#000"/></g></symbol><symbol id="icon-user"><ellipse cx="16" cy="8.667" rx="5.333" ry="6" stroke="#10375C" stroke-width="2.5"/><path d="M26.667 25.333c0 4.667-5.334 3.334-10.667 3.334S5.333 30 5.333 25.333c0-2.666 4.776-6 10.667-6s10.667 3.334 10.667 6z" stroke="#10375C" stroke-width="2.5"/></symbol><symbol id="icon-users"><path d="M23.333 19.851c3.467.932 6 3.026 6 5.482 0 1.474-2.533 2.948-6 3.621M12 19.333c-5.333 0-9.333 2.667-9.333 6 0 2 4 4 9.333 4s9.333-2 9.333-4c0-3.333-4-6-9.333-6zm8-4a6 6 0 000-12" stroke="#10375C" stroke-width="2.5" stroke-linecap="round" stroke-linejoin="round"/><circle cx="12" cy="9.333" r="6" stroke="#10375C" stroke-width="2.5"/></symbol><symbol id="icon-wifi"><g clip-path="url(#clip0)" fill="#10375C"><path d="M15.938 29.156a2.062 2.062 0 100-4.125 2.062 2.062 0 000 4.125zm6.134-9.138c-1.626-1.611-3.957-2.612-6.084-2.612h-.092c-2.126 0-4.457 1.001-6.084 2.612a1.25 1.25 0 001.76 1.776c1.158-1.147 2.855-1.888 4.325-1.888h.091c1.47 0 3.167.741 4.324 1.888a1.25 1.25 0 101.76-1.776zm9.592-10.339C27.556 5.271 21.994 2.844 16 2.844 10.007 2.844 4.444 5.27.336 9.679a1.25 1.25 0 001.828 1.704C5.794 7.49 10.708 5.343 16 5.343s10.206 2.146 13.835 6.04a1.247 1.247 0 001.767.063 1.25 1.25 0 00.062-1.767z"/><path d="M27.075 14.841c-3.037-3.06-6.97-4.744-11.075-4.744-4.106 0-8.04 1.685-11.075 4.744A1.25 1.25 0 006.7 16.602c2.562-2.583 5.865-4.005 9.3-4.005 3.433 0 6.736 1.422 9.3 4.005a1.246 1.246 0 001.768.007 1.25 1.25 0 00.007-1.768z"/></g></symbol><symbol id="icon-youtube"><path fill-rule="evenodd" clip-rule="evenodd" d="M21.39 4.114a3.007 3.007 0 012.116 2.115c.514 1.878.494 5.793.494 5.793s0 3.894-.494 5.772a3.007 3.007 0 01-2.116 2.116c-1.878.494-9.39.494-9.39.494s-7.493 0-9.39-.514a3.008 3.008 0 01-2.116-2.115C0 15.916 0 12.002 0 12.002s0-3.895.494-5.773A3.068 3.068 0 012.61 4.094C4.488 3.6 12 3.6 12 3.6s7.513 0 9.391.514zm-5.535 7.888L9.608 15.6V8.404l6.247 3.598z"/></symbol></svg>